<svg xmlns="http://www.w3.org/2000/svg" version="1.1" xmlns:xlink="http://www.w3.org/1999/xlink" xmlns:svgjs="http://svgjs.dev/svgjs" width="1000" height="171" viewBox="0 0 1000 171"><g transform="matrix(1,0,0,1,-0.6060601072305758,-0.40788978916387464)"><svg viewBox="0 0 396 68" data-background-color="#636365" preserveAspectRatio="xMidYMid meet" height="171" width="1000" xmlns="http://www.w3.org/2000/svg" xmlns:xlink="http://www.w3.org/1999/xlink"><g id="tight-bounds" transform="matrix(1,0,0,1,0.24000019753680135,0.16220178750376135)"><svg viewBox="0 0 395.52 67.67559642499246" height="67.67559642499246" width="395.52"><g><svg viewBox="0 0 560.3495518974275 95.87881809045226" height="67.67559642499246" width="395.52"><g><rect width="8.603433594365429" height="95.87881809045226" x="133.70404083090128" y="0" fill="#ffffff" opacity="1" stroke-width="0" stroke="transparent" fill-opacity="1" class="rect-o-0" data-fill-palette-color="primary" rx="1%" id="o-0" data-palette-color="#ffffff"></rect></g><g transform="matrix(1,0,0,1,164.82955189742754,0.23850452261306287)"><svg viewBox="0 0 395.52 95.40180904522613" height="95.40180904522613" width="395.52"><g id="textblocktransform"><svg viewBox="0 0 395.52 95.40180904522613" height="95.40180904522613" width="395.52" id="textblock"><g><svg viewBox="0 0 395.52 95.40180904522613" height="95.40180904522613" width="395.52"><g transform="matrix(1,0,0,1,0,0)"><svg width="395.52" viewBox="3.9000000953674316 -35.5 149.24000549316406 36" height="95.40180904522613" data-palette-color="#ffffff"><path d="M17.55 0L5.1 0Q4.6 0 4.25-0.35 3.9-0.7 3.9-1.2L3.9-1.2 3.9-33.75Q3.9-34.3 4.25-34.65 4.6-35 5.1-35L5.1-35 17.3-35Q22.35-35 25.63-33.45 28.9-31.9 30.58-28.85 32.25-25.8 32.3-21.4L32.3-21.4Q32.4-19.2 32.4-17.5 32.4-15.8 32.3-13.65L32.3-13.65Q32.2-9 30.6-5.98 29-2.95 25.78-1.48 22.55 0 17.55 0L17.55 0ZM10.85-29.25L10.85-5.75 17.3-5.75Q20.1-5.75 21.85-6.55 23.6-7.35 24.43-9.13 25.25-10.9 25.3-13.8L25.3-13.8Q25.35-15.3 25.38-16.43 25.4-17.55 25.38-18.68 25.35-19.8 25.3-21.25L25.3-21.25Q25.2-25.35 23.25-27.3 21.3-29.25 17.05-29.25L17.05-29.25 10.85-29.25ZM44.8 0L40.25 0Q39.75 0 39.4-0.33 39.05-0.65 39.05-1.2L39.05-1.2 39.05-33.75Q39.05-34.3 39.4-34.65 39.75-35 40.25-35L40.25-35 44.8-35Q45.35-35 45.67-34.65 46-34.3 46-33.75L46-33.75 46-20.85 60.75-20.85 60.75-33.75Q60.75-34.3 61.1-34.65 61.45-35 61.95-35L61.95-35 66.45-35Q67-35 67.35-34.65 67.7-34.3 67.7-33.75L67.7-33.75 67.7-1.2Q67.7-0.7 67.35-0.35 67 0 66.45 0L66.45 0 61.95 0Q61.45 0 61.1-0.35 60.75-0.7 60.75-1.2L60.75-1.2 60.75-14.6 46-14.6 46-1.2Q46-0.7 45.67-0.35 45.35 0 44.8 0L44.8 0ZM81.39 0L76.69 0Q76.19 0 75.84-0.35 75.5-0.7 75.5-1.2L75.5-1.2 75.5-33.8Q75.5-34.3 75.84-34.65 76.19-35 76.69-35L76.69-35 81.39-35Q81.94-35 82.27-34.65 82.59-34.3 82.59-33.8L82.59-33.8 82.59-1.2Q82.59-0.7 82.27-0.35 81.94 0 81.39 0L81.39 0ZM103.89 0.5L103.89 0.5Q99.44 0.5 96.24-0.98 93.04-2.45 91.24-5.53 89.44-8.6 89.29-13.2L89.29-13.2Q89.24-15.35 89.24-17.45 89.24-19.55 89.29-21.75L89.29-21.75Q89.44-26.3 91.29-29.35 93.14-32.4 96.37-33.95 99.59-35.5 103.89-35.5L103.89-35.5Q108.19-35.5 111.44-33.95 114.69-32.4 116.54-29.35 118.39-26.3 118.54-21.75L118.54-21.75Q118.64-19.55 118.64-17.45 118.64-15.35 118.54-13.2L118.54-13.2Q118.39-8.6 116.59-5.53 114.79-2.45 111.57-0.98 108.34 0.5 103.89 0.5ZM103.89-5.25L103.89-5.25Q107.14-5.25 109.19-7.18 111.24-9.1 111.39-13.45L111.39-13.45Q111.49-15.65 111.49-17.53 111.49-19.4 111.39-21.55L111.39-21.55Q111.29-24.45 110.32-26.28 109.34-28.1 107.69-28.93 106.04-29.75 103.89-29.75L103.89-29.75Q101.79-29.75 100.14-28.93 98.49-28.1 97.52-26.28 96.54-24.45 96.44-21.55L96.44-21.55Q96.39-19.4 96.39-17.53 96.39-15.65 96.44-13.45L96.44-13.45Q96.59-9.1 98.64-7.18 100.69-5.25 103.89-5.25ZM130.94 0L126.39 0Q125.89 0 125.54-0.35 125.19-0.7 125.19-1.2L125.19-1.2 125.19-33.75Q125.19-34.3 125.54-34.65 125.89-35 126.39-35L126.39-35 139.34-35Q145.39-35 148.89-32.2 152.39-29.4 152.39-24.05L152.39-24.05Q152.39-20.35 150.56-17.9 148.74-15.45 145.69-14.35L145.69-14.35 152.99-1.6Q153.14-1.3 153.14-1.05L153.14-1.05Q153.14-0.6 152.81-0.3 152.49 0 152.09 0L152.09 0 147.54 0Q146.69 0 146.24-0.45 145.79-0.9 145.54-1.35L145.54-1.35 139.09-13.2 132.14-13.2 132.14-1.2Q132.14-0.7 131.81-0.35 131.49 0 130.94 0L130.94 0ZM132.14-29.45L132.14-18.85 139.19-18.85Q142.24-18.85 143.74-20.23 145.24-21.6 145.24-24.1L145.24-24.1Q145.24-26.6 143.77-28.03 142.29-29.45 139.19-29.45L139.19-29.45 132.14-29.45Z" opacity="1" transform="matrix(1,0,0,1,0,0)" fill="#ffffff" class="undefined-text-0" data-fill-palette-color="primary" id="text-0"></path></svg></g></svg></g></svg></g></svg></g><g transform="matrix(1,0,0,1,0,0.23850452261306287)"><svg viewBox="0 0 111.18196335874048 95.40180904522613" height="95.40180904522613" width="111.18196335874048"><g><svg xmlns="http://www.w3.org/2000/svg" xmlns:xlink="http://www.w3.org/1999/xlink" version="1.1" x="0" y="0" viewBox="9.534000396728516 17.606000900268555 78.80599975585938 67.6209945678711" enable-background="new 0 0 100 100" xml:space="preserve" height="95.40180904522613" width="111.18196335874048" class="icon-icon-0" data-fill-palette-color="accent" id="icon-0"><polygon points="79.545,50.58 62.084,50.58 62.084,64.834 41.903,64.834 36.763,84.877 59.682,85.227 62.551,74.041 65.42,85.227   88.34,84.877 " fill="#ff8989" data-fill-palette-color="accent"></polygon><path d="M58.615 17.606H47.692c-0.461 4.256-4.064 7.569-8.442 7.569s-7.981-3.313-8.442-7.569H19.844v0.024L9.534 24.094l10.311 10.311V61.32h38.771V34.443l10.35-10.349L58.615 17.606z" fill="#ff8989" data-fill-palette-color="accent"></path></svg></g></svg></g></svg></g><defs></defs></svg><rect width="395.52" height="67.67559642499246" fill="none" stroke="none" visibility="hidden"></rect></g></svg></g></svg>